<?xml version="1.0"?>
<svg xmlns="http://www.w3.org/2000/svg" xmlns:xlink="http://www.w3.org/1999/xlink" xmlns:svgjs="http://svgjs.com/svgjs" version="1.1" width="512" height="512" x="0" y="0" viewBox="0 0 512 512" style="enable-background:new 0 0 512 512" xml:space="preserve" class=""><g>
<circle style="" cx="256" cy="256" r="256" fill="#ffa62b" data-original="#0575a5" class=""/>
<path style="" d="M502.82,323.912L394.442,215.544h-9.221L256,141.699l-47.982,27.425l-81.244,46.423h-9.216v14.756  l27.251,27.256v83.19h-18.035v14.797h-9.216v14.758l141.614,141.612C375.639,510.497,473.324,431.347,502.82,323.912z" fill="#ba6c01" data-original="#025e90" class=""/>
<g>
	<rect x="126.797" y="340.762" style="" width="258.432" height="14.774" fill="#e1effa" data-original="#e1effa"/>
	<g>
		<rect x="117.56" y="355.533" style="" width="276.89" height="14.764" fill="#ffffff" data-original="#ffffff" class=""/>
		<rect x="117.56" y="215.526" style="" width="276.89" height="14.748" fill="#ffffff" data-original="#ffffff" class=""/>
		<rect x="144.794" y="230.298" style="" width="20.303" height="110.49" fill="#ffffff" data-original="#ffffff" class=""/>
	</g>
	<rect x="140.18" y="230.298" style="" width="29.532" height="14.833" fill="#e1effa" data-original="#e1effa"/>
	<rect x="212.147" y="230.298" style="" width="20.316" height="110.49" fill="#ffffff" data-original="#ffffff" class=""/>
	<rect x="207.565" y="230.298" style="" width="29.524" height="14.833" fill="#e1effa" data-original="#e1effa"/>
	<rect x="279.552" y="230.298" style="" width="20.296" height="110.49" fill="#ffffff" data-original="#ffffff" class=""/>
	<rect x="274.918" y="230.298" style="" width="29.532" height="14.833" fill="#e1effa" data-original="#e1effa"/>
	<rect x="346.906" y="230.298" style="" width="20.303" height="110.49" fill="#ffffff" data-original="#ffffff" class=""/>
	<g>
		<rect x="342.298" y="230.298" style="" width="29.527" height="14.833" fill="#e1effa" data-original="#e1effa"/>
		<polygon style="" points="256,141.699 126.789,215.539 385.213,215.539   " fill="#e1effa" data-original="#e1effa"/>
	</g>
	<polygon style="" points="182.4,200.763 256,158.71 329.603,200.763  " fill="#b8d1e6" data-original="#b8d1e6"/>
</g>
<g>
</g>
<g>
</g>
<g>
</g>
<g>
</g>
<g>
</g>
<g>
</g>
<g>
</g>
<g>
</g>
<g>
</g>
<g>
</g>
<g>
</g>
<g>
</g>
<g>
</g>
<g>
</g>
<g>
</g>
</g></svg>
