<?xml version="1.0"?>
<svg xmlns="http://www.w3.org/2000/svg" xmlns:xlink="http://www.w3.org/1999/xlink" xmlns:svgjs="http://svgjs.com/svgjs" version="1.1" width="512" height="512" x="0" y="0" viewBox="0 0 512 512" style="enable-background:new 0 0 512 512" xml:space="preserve" class=""><g>
<path style="" d="M512,256c0,141.389-114.611,256-256,256C114.614,512,0,397.389,0,256C0,114.609,114.614,0,256,0  C397.389,0,512,114.609,512,256z" fill="#ffa62b" data-original="#e1effa" class=""/>
<path style="" d="M284.529,113.108l-8.154-8.148c-7.698-6.321-16.919-10.644-26.798-12.5l-0.01-0.008  c-0.038-0.005-0.084-0.005-0.118-0.02c-1.833-0.333-3.694-0.584-5.565-0.748c-0.374-0.038-0.745-0.067-1.121-0.095  c-1.741-0.118-3.497-0.161-5.268-0.125c-0.443,0.008-0.881,0.028-1.329,0.049c-1.777,0.077-3.569,0.215-5.358,0.458  c-0.335,0.049-0.666,0.105-1.004,0.164c-1.946,0.292-3.891,0.663-5.837,1.155c-31.818,8.12-51.016,40.376-42.898,72.192  c0.438,1.743,0.98,3.428,1.559,5.092c0.141,0.392,0.276,0.778,0.422,1.165c0.604,1.613,1.254,3.192,1.984,4.728  c0.095,0.2,0.207,0.392,0.305,0.599c0.676,1.372,1.405,2.708,2.171,4.006c0.205,0.346,0.402,0.686,0.612,1.029  c0.878,1.423,1.805,2.811,2.788,4.137c0.154,0.207,0.317,0.407,0.471,0.607c0.975,1.285,2.002,2.527,3.077,3.72  c0.105,0.123,0.205,0.246,0.31,0.358c0.169,0.187,0.323,0.379,0.492,0.566c0.584,0.579,1.137,1.162,1.72,1.713l56.978,56.978v3.656  l-25.085-25.047c0-0.074-0.077-0.11-0.113-0.151l-0.338-0.333c-0.461-0.502-0.899-1.009-1.385-1.492  c-0.463-0.468-0.96-0.888-1.439-1.331l-0.387-0.387c-0.036-0.036-0.072-0.113-0.148-0.113c-0.02-0.013-0.038-0.028-0.054-0.054  c-0.819-0.727-1.651-1.411-2.504-2.079c-0.169-0.133-0.333-0.269-0.507-0.397c-0.768-0.581-1.549-1.139-2.342-1.664  c-0.269-0.179-0.538-0.366-0.812-0.538c-0.719-0.463-1.454-0.899-2.194-1.321c-0.358-0.207-0.724-0.415-1.088-0.607  c-0.678-0.366-1.357-0.707-2.048-1.029c-0.445-0.215-0.896-0.422-1.352-0.622c-0.635-0.276-1.272-0.545-1.917-0.794  c-0.52-0.2-1.039-0.389-1.559-0.573c-0.604-0.205-1.201-0.412-1.81-0.589c-0.579-0.179-1.165-0.343-1.751-0.499  c-0.571-0.151-1.134-0.294-1.708-0.422c-0.63-0.143-1.26-0.266-1.892-0.387c-0.543-0.102-1.085-0.205-1.633-0.282  c-0.663-0.1-1.334-0.174-2.002-0.248c-0.527-0.056-1.047-0.115-1.569-0.159c-0.699-0.049-1.39-0.069-2.089-0.097  c-0.502-0.015-1.004-0.036-1.505-0.036c-0.717,0-1.428,0.028-2.145,0.056c-0.492,0.02-0.975,0.028-1.469,0.064  c-0.722,0.056-1.446,0.143-2.166,0.228c-0.479,0.054-0.96,0.095-1.428,0.164c-0.735,0.105-1.462,0.256-2.191,0.392  c-0.461,0.092-0.919,0.164-1.377,0.271c-0.748,0.164-1.487,0.371-2.225,0.571c-0.43,0.12-0.873,0.22-1.303,0.351  c-0.794,0.243-1.577,0.527-2.36,0.814c-0.366,0.125-0.73,0.243-1.096,0.376c-1.137,0.445-2.26,0.929-3.372,1.457  c-0.532,1.116-1.019,2.237-1.462,3.377c-0.133,0.343-0.236,0.694-0.358,1.047c-0.294,0.799-0.584,1.597-0.832,2.412  c-0.123,0.415-0.22,0.829-0.333,1.244c-0.212,0.755-0.422,1.521-0.594,2.286c-0.097,0.435-0.169,0.878-0.256,1.321  c-0.143,0.75-0.292,1.498-0.399,2.25c-0.069,0.458-0.113,0.914-0.164,1.37c-0.087,0.75-0.179,1.485-0.228,2.237  c-0.036,0.471-0.041,0.934-0.061,1.408c-0.036,0.735-0.064,1.472-0.064,2.204c0,0.489,0.026,0.973,0.044,1.457  c0.02,0.717,0.044,1.428,0.1,2.143c0.038,0.509,0.097,1.014,0.154,1.516c0.069,0.694,0.148,1.377,0.253,2.066  c0.077,0.527,0.177,1.047,0.274,1.577c0.12,0.648,0.246,1.306,0.394,1.956c0.125,0.55,0.266,1.103,0.412,1.651  c0.159,0.607,0.325,1.208,0.509,1.807c0.182,0.594,0.376,1.17,0.576,1.756c0.189,0.543,0.387,1.078,0.594,1.615  c0.246,0.63,0.502,1.257,0.776,1.871c0.205,0.471,0.42,0.934,0.64,1.395c0.32,0.686,0.653,1.344,1.004,2.004  c0.205,0.384,0.422,0.765,0.637,1.149c0.41,0.717,0.84,1.434,1.295,2.143c0.182,0.282,0.374,0.571,0.563,0.85  c0.527,0.788,1.068,1.551,1.644,2.309c0.136,0.182,0.279,0.353,0.415,0.535c0.66,0.85,1.349,1.677,2.071,2.481  c0.02,0.028,0.036,0.049,0.051,0.069c0,0.069,0.077,0.105,0.113,0.141l0.392,0.392c0.443,0.479,0.86,0.97,1.329,1.434  c0.468,0.471,0.963,0.893,1.446,1.349l0.379,0.374c0.036,0.041,0.074,0.11,0.148,0.11l37.266,37.274h-10.788h-20.879  c-4.795,0-8.704,3.912-8.704,8.66v4.355c0,2.414,1.001,4.613,2.601,6.188l9.065,9.06l0.013,0.013l9.093,72.768  c0.182,1.495,0.765,2.998,1.756,4.278c0.33,0.407,0.73,0.806,1.132,1.172c0.041,0.036,0.041,0.036,0.077,0.036l90.668,90.683  c98.583-14.804,178.721-85.829,206.828-179.377L284.529,113.108z" fill="#ba6c01" data-original="#bcd4e8" class=""/>
<path style="" d="M311.283,412.954c-0.251,2.038-1.219,3.976-2.875,5.443c-1.649,1.454-3.702,2.179-5.745,2.179  h-93.322c-2.045,0-4.099-0.722-5.755-2.179c-1.656-1.467-2.619-3.405-2.872-5.443l-9.917-79.319h130.399L311.283,412.954z" fill="#34495e" data-original="#34495e" class=""/>
<path style="" d="M332.068,324.941c0,4.782-3.912,8.694-8.691,8.694H188.628c-4.79,0-8.694-3.909-8.694-8.694v-4.347  c0-4.785,3.904-8.694,8.694-8.694h134.751c4.777,0,8.691,3.909,8.691,8.694v4.347H332.068z" fill="#5d6d7e" data-original="#5d6d7e" class=""/>
<g>
	
		<rect x="266.78" y="270.8" transform="matrix(-0.7071 -0.7071 0.7071 -0.7071 254.5878 683.3052)" style="" width="4.063" height="36.252" fill="#c1d354" data-original="#c1d354"/>
	<path style="" d="M340.408,217.341c-18.109-8.678-40.466-5.519-55.465,9.482   c-15.004,15.004-18.163,37.363-9.487,55.47c18.115,8.681,40.474,5.527,55.475-9.482   C345.938,257.81,349.092,235.451,340.408,217.341z" fill="#c1d354" data-original="#c1d354"/>
</g>
<path style="" d="M340.408,217.341c-18.109-8.678-40.466-5.519-55.465,9.482c-15.004,15.004-18.163,37.363-9.487,55.47  L340.408,217.341z" fill="#a6b83d" data-original="#a6b83d" class=""/>
<g>
	
		<rect x="225.054" y="286.895" transform="matrix(-0.707 -0.7072 0.7072 -0.707 210.7786 665.1717)" style="" width="36.249" height="4.058" fill="#c1d354" data-original="#c1d354"/>
	<path style="" d="M171.589,217.341c18.107-8.678,40.461-5.519,55.465,9.482c15.004,15.004,18.158,37.363,9.485,55.47   c-18.104,8.681-40.468,5.527-55.468-9.482C166.065,257.81,162.913,235.451,171.589,217.341z" fill="#c1d354" data-original="#c1d354"/>
</g>
<g>
	<path style="" d="M171.589,217.341c18.107-8.678,40.461-5.519,55.465,9.482c15.004,15.004,18.158,37.363,9.485,55.47   L171.589,217.341z" fill="#a6b83d" data-original="#a6b83d" class=""/>
	<path style="" d="M258.022,311.898h-4.052v-76.969c0-40.863-15.913-79.283-44.808-108.178l2.867-2.872   c29.658,29.658,45.993,69.102,45.993,111.05L258.022,311.898L258.022,311.898z" fill="#a6b83d" data-original="#a6b83d" class=""/>
</g>
<path style="" d="M296.2,136.159c8.105,31.785-11.082,64.2-42.865,72.3c-31.846,8.115-64.177-11.164-72.279-42.964  c-8.108-31.816,11.09-64.095,42.926-72.215C255.762,85.189,288.087,104.338,296.2,136.159z" fill="#0e6726" data-original="#f28124" class=""/>
<path style="" d="M249.984,195.308c-24.571,6.264-49.551-8.579-55.816-33.157c-6.252-24.527,8.561-49.58,33.142-55.839  c24.512-6.246,49.577,8.64,55.831,33.167C289.411,164.058,274.506,189.066,249.984,195.308z" fill="#ffffff" data-original="#ff9d4d" class=""/>
<path style="" d="M242.747,176.671c-7.718,1.344-14.144-0.228-19.067-3.269l3.146-7.923  c3.489,2.322,8.456,4.022,13.962,3.487l-3.638-14.257c-8.054,0.028-16.681-0.673-19.118-10.222  c-1.907-7.493,2.598-14.973,11.873-18.202l-1.723-6.756l5.868-1.495l1.748,6.83c6.118-0.858,11.707,0.22,16.466,2.921l-3.215,7.626  c-3.51-2.076-7.46-2.87-11.251-2.693l3.233,12.708c8.143,0.036,17.183,0.794,19.689,10.629c1.91,7.493-1.329,15.357-12.106,19.121  l1.69,6.61l-5.87,1.5L242.747,176.671z M234.775,145.388l-2.941-11.535c-3.986,1.564-5.978,4.503-5.148,7.731  C227.41,144.451,230.577,145.201,234.775,145.388z M243.415,154.76l3.251,12.785c4.892-2.035,6.175-5.565,5.443-8.438  C251.274,155.817,247.777,154.982,243.415,154.76z" fill="#0e6726" data-original="#f28124" class=""/>
<g>
</g>
<g>
</g>
<g>
</g>
<g>
</g>
<g>
</g>
<g>
</g>
<g>
</g>
<g>
</g>
<g>
</g>
<g>
</g>
<g>
</g>
<g>
</g>
<g>
</g>
<g>
</g>
<g>
</g>
</g></svg>
